<svg xmlns="http://www.w3.org/2000/svg" viewBox="0 0 800.48 208.48" role="img" aria-label="BETTERMC5 REMAKE"><defs><linearGradient id="wmTop" x1="0" y1="0" x2="0" y2="1"><stop offset="0%" stop-color="#c97ff5"/><stop offset="32%" stop-color="#f0c2ff"/><stop offset="35%" stop-color="#9d35ec"/><stop offset="100%" stop-color="#5f14b4"/></linearGradient><linearGradient id="wmBottom" x1="0" y1="0" x2="0" y2="1"><stop offset="0%" stop-color="#d8cdec"/><stop offset="32%" stop-color="#ffffff"/><stop offset="35%" stop-color="#bcabdd"/><stop offset="100%" stop-color="#7d68b2"/></linearGradient><linearGradient id="wmGold" x1="0" y1="0" x2="0" y2="1"><stop offset="0%" stop-color="#f0c75f"/><stop offset="32%" stop-color="#fff0bb"/><stop offset="35%" stop-color="#e5a01c"/><stop offset="100%" stop-color="#8c5205"/></linearGradient><path id="wmTopMain" d="M0 0h22v100h-22zM0 0h68v22h-68zM0 39h72v22h-72zM0 78h68v22h-68zM46 0h22v61h-22zM50 39h22v61h-22zM87 0h22v100h-22zM87 0h78v22h-78zM87 39h62v22h-62zM87 78h78v22h-78zM174 0h78v22h-78zM202 0h22v100h-22zM261 0h78v22h-78zM289 0h22v100h-22zM348 0h22v100h-22zM348 0h78v22h-78zM348 39h62v22h-62zM348 78h78v22h-78zM435 0h22v100h-22zM435 0h70v22h-70zM435 39h70v22h-70zM483 0h22v61h-22zM461 61L483 61L513 100L491 100zM522 0h22v100h-22zM578 0h22v100h-22zM522 0h78v22h-78zM550 0h22v58h-22zM609 0h22v100h-22zM609 0h78v22h-78zM609 78h78v22h-78z"/><path id="wmBottomMain" d="M0 0h22v100h-22zM0 0h70v22h-70zM0 39h70v22h-70zM48 0h22v61h-22zM26 61L48 61L78 100L56 100zM94 0h22v100h-22zM94 0h78v22h-78zM94 39h62v22h-62zM94 78h78v22h-78zM188 0h22v100h-22zM244 0h22v100h-22zM188 0h78v22h-78zM216 0h22v58h-22zM282 0h78v22h-78zM282 0h22v100h-22zM338 0h22v100h-22zM282 39h78v22h-78zM376 0h22v100h-22zM454 0L432 0L398 50L398 28zM398 28L398 50L432 100L454 100zM470 0h22v100h-22zM470 0h78v22h-78zM470 39h62v22h-62zM470 78h78v22h-78z"/><path id="wmTopGold" d="M696 0h78v22h-78zM696 0h22v61h-22zM696 39h70v22h-70zM744 39h22v61h-22zM696 78h70v22h-70z"/></defs><g transform="translate(13.24 9.24)"><use href="#wmTopMain" x="-9.24" y="5.76" fill="#dcc7f7"/><use href="#wmTopMain" x="-9.24" y="15" fill="#dcc7f7"/><use href="#wmTopMain" x="-9.24" y="24.24" fill="#dcc7f7"/><use href="#wmTopMain" x="0" y="5.76" fill="#dcc7f7"/><use href="#wmTopMain" x="0" y="24.24" fill="#dcc7f7"/><use href="#wmTopMain" x="9.24" y="5.76" fill="#dcc7f7"/><use href="#wmTopMain" x="9.24" y="15" fill="#dcc7f7"/><use href="#wmTopMain" x="9.24" y="24.24" fill="#dcc7f7"/><use href="#wmTopMain" x="-9.24" y="3.61714" fill="#dcc7f7"/><use href="#wmTopMain" x="-9.24" y="12.8571" fill="#dcc7f7"/><use href="#wmTopMain" x="-9.24" y="22.0971" fill="#dcc7f7"/><use href="#wmTopMain" x="0" y="3.61714" fill="#dcc7f7"/><use href="#wmTopMain" x="0" y="22.0971" fill="#dcc7f7"/><use href="#wmTopMain" x="9.24" y="3.61714" fill="#dcc7f7"/><use href="#wmTopMain" x="9.24" y="12.8571" fill="#dcc7f7"/><use href="#wmTopMain" x="9.24" y="22.0971" fill="#dcc7f7"/><use href="#wmTopMain" x="-9.24" y="1.47429" fill="#dcc7f7"/><use href="#wmTopMain" x="-9.24" y="10.7143" fill="#dcc7f7"/><use href="#wmTopMain" x="-9.24" y="19.9543" fill="#dcc7f7"/><use href="#wmTopMain" x="0" y="1.47429" fill="#dcc7f7"/><use href="#wmTopMain" x="0" y="19.9543" fill="#dcc7f7"/><use href="#wmTopMain" x="9.24" y="1.47429" fill="#dcc7f7"/><use href="#wmTopMain" x="9.24" y="10.7143" fill="#dcc7f7"/><use href="#wmTopMain" x="9.24" y="19.9543" fill="#dcc7f7"/><use href="#wmTopMain" x="-9.24" y="-0.668571" fill="#dcc7f7"/><use href="#wmTopMain" x="-9.24" y="8.57143" fill="#dcc7f7"/><use href="#wmTopMain" x="-9.24" y="17.8114" fill="#dcc7f7"/><use href="#wmTopMain" x="0" y="-0.668571" fill="#dcc7f7"/><use href="#wmTopMain" x="0" y="17.8114" fill="#dcc7f7"/><use href="#wmTopMain" x="9.24" y="-0.668571" fill="#dcc7f7"/><use href="#wmTopMain" x="9.24" y="8.57143" fill="#dcc7f7"/><use href="#wmTopMain" x="9.24" y="17.8114" fill="#dcc7f7"/><use href="#wmTopMain" x="-9.24" y="-2.81143" fill="#dcc7f7"/><use href="#wmTopMain" x="-9.24" y="6.42857" fill="#dcc7f7"/><use href="#wmTopMain" x="-9.24" y="15.6686" fill="#dcc7f7"/><use href="#wmTopMain" x="0" y="-2.81143" fill="#dcc7f7"/><use href="#wmTopMain" x="0" y="15.6686" fill="#dcc7f7"/><use href="#wmTopMain" x="9.24" y="-2.81143" fill="#dcc7f7"/><use href="#wmTopMain" x="9.24" y="6.42857" fill="#dcc7f7"/><use href="#wmTopMain" x="9.24" y="15.6686" fill="#dcc7f7"/><use href="#wmTopMain" x="-9.24" y="-4.95429" fill="#dcc7f7"/><use href="#wmTopMain" x="-9.24" y="4.28571" fill="#dcc7f7"/><use href="#wmTopMain" x="-9.24" y="13.5257" fill="#dcc7f7"/><use href="#wmTopMain" x="0" y="-4.95429" fill="#dcc7f7"/><use href="#wmTopMain" x="0" y="13.5257" fill="#dcc7f7"/><use href="#wmTopMain" x="9.24" y="-4.95429" fill="#dcc7f7"/><use href="#wmTopMain" x="9.24" y="4.28571" fill="#dcc7f7"/><use href="#wmTopMain" x="9.24" y="13.5257" fill="#dcc7f7"/><use href="#wmTopMain" x="-9.24" y="-7.09714" fill="#dcc7f7"/><use href="#wmTopMain" x="-9.24" y="2.14286" fill="#dcc7f7"/><use href="#wmTopMain" x="-9.24" y="11.3829" fill="#dcc7f7"/><use href="#wmTopMain" x="0" y="-7.09714" fill="#dcc7f7"/><use href="#wmTopMain" x="0" y="11.3829" fill="#dcc7f7"/><use href="#wmTopMain" x="9.24" y="-7.09714" fill="#dcc7f7"/><use href="#wmTopMain" x="9.24" y="2.14286" fill="#dcc7f7"/><use href="#wmTopMain" x="9.24" y="11.3829" fill="#dcc7f7"/><use href="#wmTopMain" x="-9.24" y="-9.24" fill="#dcc7f7"/><use href="#wmTopMain" x="-9.24" y="0" fill="#dcc7f7"/><use href="#wmTopMain" x="-9.24" y="9.24" fill="#dcc7f7"/><use href="#wmTopMain" x="0" y="-9.24" fill="#dcc7f7"/><use href="#wmTopMain" x="0" y="9.24" fill="#dcc7f7"/><use href="#wmTopMain" x="9.24" y="-9.24" fill="#dcc7f7"/><use href="#wmTopMain" x="9.24" y="0" fill="#dcc7f7"/><use href="#wmTopMain" x="9.24" y="9.24" fill="#dcc7f7"/><use href="#wmTopMain" x="-7" y="8" fill="#140924"/><use href="#wmTopMain" x="-7" y="15" fill="#140924"/><use href="#wmTopMain" x="-7" y="22" fill="#140924"/><use href="#wmTopMain" x="0" y="8" fill="#140924"/><use href="#wmTopMain" x="0" y="22" fill="#140924"/><use href="#wmTopMain" x="7" y="8" fill="#140924"/><use href="#wmTopMain" x="7" y="15" fill="#140924"/><use href="#wmTopMain" x="7" y="22" fill="#140924"/><use href="#wmTopMain" x="-7" y="5.85714" fill="#140924"/><use href="#wmTopMain" x="-7" y="12.8571" fill="#140924"/><use href="#wmTopMain" x="-7" y="19.8571" fill="#140924"/><use href="#wmTopMain" x="0" y="5.85714" fill="#140924"/><use href="#wmTopMain" x="0" y="19.8571" fill="#140924"/><use href="#wmTopMain" x="7" y="5.85714" fill="#140924"/><use href="#wmTopMain" x="7" y="12.8571" fill="#140924"/><use href="#wmTopMain" x="7" y="19.8571" fill="#140924"/><use href="#wmTopMain" x="-7" y="3.71429" fill="#140924"/><use href="#wmTopMain" x="-7" y="10.7143" fill="#140924"/><use href="#wmTopMain" x="-7" y="17.7143" fill="#140924"/><use href="#wmTopMain" x="0" y="3.71429" fill="#140924"/><use href="#wmTopMain" x="0" y="17.7143" fill="#140924"/><use href="#wmTopMain" x="7" y="3.71429" fill="#140924"/><use href="#wmTopMain" x="7" y="10.7143" fill="#140924"/><use href="#wmTopMain" x="7" y="17.7143" fill="#140924"/><use href="#wmTopMain" x="-7" y="1.57143" fill="#140924"/><use href="#wmTopMain" x="-7" y="8.57143" fill="#140924"/><use href="#wmTopMain" x="-7" y="15.5714" fill="#140924"/><use href="#wmTopMain" x="0" y="1.57143" fill="#140924"/><use href="#wmTopMain" x="0" y="15.5714" fill="#140924"/><use href="#wmTopMain" x="7" y="1.57143" fill="#140924"/><use href="#wmTopMain" x="7" y="8.57143" fill="#140924"/><use href="#wmTopMain" x="7" y="15.5714" fill="#140924"/><use href="#wmTopMain" x="-7" y="-0.571429" fill="#140924"/><use href="#wmTopMain" x="-7" y="6.42857" fill="#140924"/><use href="#wmTopMain" x="-7" y="13.4286" fill="#140924"/><use href="#wmTopMain" x="0" y="-0.571429" fill="#140924"/><use href="#wmTopMain" x="0" y="13.4286" fill="#140924"/><use href="#wmTopMain" x="7" y="-0.571429" fill="#140924"/><use href="#wmTopMain" x="7" y="6.42857" fill="#140924"/><use href="#wmTopMain" x="7" y="13.4286" fill="#140924"/><use href="#wmTopMain" x="-7" y="-2.71429" fill="#140924"/><use href="#wmTopMain" x="-7" y="4.28571" fill="#140924"/><use href="#wmTopMain" x="-7" y="11.2857" fill="#140924"/><use href="#wmTopMain" x="0" y="-2.71429" fill="#140924"/><use href="#wmTopMain" x="0" y="11.2857" fill="#140924"/><use href="#wmTopMain" x="7" y="-2.71429" fill="#140924"/><use href="#wmTopMain" x="7" y="4.28571" fill="#140924"/><use href="#wmTopMain" x="7" y="11.2857" fill="#140924"/><use href="#wmTopMain" x="-7" y="-4.85714" fill="#140924"/><use href="#wmTopMain" x="-7" y="2.14286" fill="#140924"/><use href="#wmTopMain" x="-7" y="9.14286" fill="#140924"/><use href="#wmTopMain" x="0" y="-4.85714" fill="#140924"/><use href="#wmTopMain" x="0" y="9.14286" fill="#140924"/><use href="#wmTopMain" x="7" y="-4.85714" fill="#140924"/><use href="#wmTopMain" x="7" y="2.14286" fill="#140924"/><use href="#wmTopMain" x="7" y="9.14286" fill="#140924"/><use href="#wmTopMain" x="-7" y="-7" fill="#140924"/><use href="#wmTopMain" x="-7" y="0" fill="#140924"/><use href="#wmTopMain" x="-7" y="7" fill="#140924"/><use href="#wmTopMain" x="0" y="-7" fill="#140924"/><use href="#wmTopMain" x="0" y="7" fill="#140924"/><use href="#wmTopMain" x="7" y="-7" fill="#140924"/><use href="#wmTopMain" x="7" y="0" fill="#140924"/><use href="#wmTopMain" x="7" y="7" fill="#140924"/><use href="#wmTopMain" y="15" fill="#3f0e80"/><use href="#wmTopMain" y="12.8571" fill="#3f0e80"/><use href="#wmTopMain" y="10.7143" fill="#3f0e80"/><use href="#wmTopMain" y="8.57143" fill="#3f0e80"/><use href="#wmTopMain" y="6.42857" fill="#3f0e80"/><use href="#wmTopMain" y="4.28571" fill="#3f0e80"/><use href="#wmTopMain" y="2.14286" fill="#3f0e80"/><use href="#wmTopMain" fill="url(#wmTop)"/><use href="#wmTopGold" x="-9.24" y="5.76" fill="#dcc7f7"/><use href="#wmTopGold" x="-9.24" y="15" fill="#dcc7f7"/><use href="#wmTopGold" x="-9.24" y="24.24" fill="#dcc7f7"/><use href="#wmTopGold" x="0" y="5.76" fill="#dcc7f7"/><use href="#wmTopGold" x="0" y="24.24" fill="#dcc7f7"/><use href="#wmTopGold" x="9.24" y="5.76" fill="#dcc7f7"/><use href="#wmTopGold" x="9.24" y="15" fill="#dcc7f7"/><use href="#wmTopGold" x="9.24" y="24.24" fill="#dcc7f7"/><use href="#wmTopGold" x="-9.24" y="3.61714" fill="#dcc7f7"/><use href="#wmTopGold" x="-9.24" y="12.8571" fill="#dcc7f7"/><use href="#wmTopGold" x="-9.24" y="22.0971" fill="#dcc7f7"/><use href="#wmTopGold" x="0" y="3.61714" fill="#dcc7f7"/><use href="#wmTopGold" x="0" y="22.0971" fill="#dcc7f7"/><use href="#wmTopGold" x="9.24" y="3.61714" fill="#dcc7f7"/><use href="#wmTopGold" x="9.24" y="12.8571" fill="#dcc7f7"/><use href="#wmTopGold" x="9.24" y="22.0971" fill="#dcc7f7"/><use href="#wmTopGold" x="-9.24" y="1.47429" fill="#dcc7f7"/><use href="#wmTopGold" x="-9.24" y="10.7143" fill="#dcc7f7"/><use href="#wmTopGold" x="-9.24" y="19.9543" fill="#dcc7f7"/><use href="#wmTopGold" x="0" y="1.47429" fill="#dcc7f7"/><use href="#wmTopGold" x="0" y="19.9543" fill="#dcc7f7"/><use href="#wmTopGold" x="9.24" y="1.47429" fill="#dcc7f7"/><use href="#wmTopGold" x="9.24" y="10.7143" fill="#dcc7f7"/><use href="#wmTopGold" x="9.24" y="19.9543" fill="#dcc7f7"/><use href="#wmTopGold" x="-9.24" y="-0.668571" fill="#dcc7f7"/><use href="#wmTopGold" x="-9.24" y="8.57143" fill="#dcc7f7"/><use href="#wmTopGold" x="-9.24" y="17.8114" fill="#dcc7f7"/><use href="#wmTopGold" x="0" y="-0.668571" fill="#dcc7f7"/><use href="#wmTopGold" x="0" y="17.8114" fill="#dcc7f7"/><use href="#wmTopGold" x="9.24" y="-0.668571" fill="#dcc7f7"/><use href="#wmTopGold" x="9.24" y="8.57143" fill="#dcc7f7"/><use href="#wmTopGold" x="9.24" y="17.8114" fill="#dcc7f7"/><use href="#wmTopGold" x="-9.24" y="-2.81143" fill="#dcc7f7"/><use href="#wmTopGold" x="-9.24" y="6.42857" fill="#dcc7f7"/><use href="#wmTopGold" x="-9.24" y="15.6686" fill="#dcc7f7"/><use href="#wmTopGold" x="0" y="-2.81143" fill="#dcc7f7"/><use href="#wmTopGold" x="0" y="15.6686" fill="#dcc7f7"/><use href="#wmTopGold" x="9.24" y="-2.81143" fill="#dcc7f7"/><use href="#wmTopGold" x="9.24" y="6.42857" fill="#dcc7f7"/><use href="#wmTopGold" x="9.24" y="15.6686" fill="#dcc7f7"/><use href="#wmTopGold" x="-9.24" y="-4.95429" fill="#dcc7f7"/><use href="#wmTopGold" x="-9.24" y="4.28571" fill="#dcc7f7"/><use href="#wmTopGold" x="-9.24" y="13.5257" fill="#dcc7f7"/><use href="#wmTopGold" x="0" y="-4.95429" fill="#dcc7f7"/><use href="#wmTopGold" x="0" y="13.5257" fill="#dcc7f7"/><use href="#wmTopGold" x="9.24" y="-4.95429" fill="#dcc7f7"/><use href="#wmTopGold" x="9.24" y="4.28571" fill="#dcc7f7"/><use href="#wmTopGold" x="9.24" y="13.5257" fill="#dcc7f7"/><use href="#wmTopGold" x="-9.24" y="-7.09714" fill="#dcc7f7"/><use href="#wmTopGold" x="-9.24" y="2.14286" fill="#dcc7f7"/><use href="#wmTopGold" x="-9.24" y="11.3829" fill="#dcc7f7"/><use href="#wmTopGold" x="0" y="-7.09714" fill="#dcc7f7"/><use href="#wmTopGold" x="0" y="11.3829" fill="#dcc7f7"/><use href="#wmTopGold" x="9.24" y="-7.09714" fill="#dcc7f7"/><use href="#wmTopGold" x="9.24" y="2.14286" fill="#dcc7f7"/><use href="#wmTopGold" x="9.24" y="11.3829" fill="#dcc7f7"/><use href="#wmTopGold" x="-9.24" y="-9.24" fill="#dcc7f7"/><use href="#wmTopGold" x="-9.24" y="0" fill="#dcc7f7"/><use href="#wmTopGold" x="-9.24" y="9.24" fill="#dcc7f7"/><use href="#wmTopGold" x="0" y="-9.24" fill="#dcc7f7"/><use href="#wmTopGold" x="0" y="9.24" fill="#dcc7f7"/><use href="#wmTopGold" x="9.24" y="-9.24" fill="#dcc7f7"/><use href="#wmTopGold" x="9.24" y="0" fill="#dcc7f7"/><use href="#wmTopGold" x="9.24" y="9.24" fill="#dcc7f7"/><use href="#wmTopGold" x="-7" y="8" fill="#140924"/><use href="#wmTopGold" x="-7" y="15" fill="#140924"/><use href="#wmTopGold" x="-7" y="22" fill="#140924"/><use href="#wmTopGold" x="0" y="8" fill="#140924"/><use href="#wmTopGold" x="0" y="22" fill="#140924"/><use href="#wmTopGold" x="7" y="8" fill="#140924"/><use href="#wmTopGold" x="7" y="15" fill="#140924"/><use href="#wmTopGold" x="7" y="22" fill="#140924"/><use href="#wmTopGold" x="-7" y="5.85714" fill="#140924"/><use href="#wmTopGold" x="-7" y="12.8571" fill="#140924"/><use href="#wmTopGold" x="-7" y="19.8571" fill="#140924"/><use href="#wmTopGold" x="0" y="5.85714" fill="#140924"/><use href="#wmTopGold" x="0" y="19.8571" fill="#140924"/><use href="#wmTopGold" x="7" y="5.85714" fill="#140924"/><use href="#wmTopGold" x="7" y="12.8571" fill="#140924"/><use href="#wmTopGold" x="7" y="19.8571" fill="#140924"/><use href="#wmTopGold" x="-7" y="3.71429" fill="#140924"/><use href="#wmTopGold" x="-7" y="10.7143" fill="#140924"/><use href="#wmTopGold" x="-7" y="17.7143" fill="#140924"/><use href="#wmTopGold" x="0" y="3.71429" fill="#140924"/><use href="#wmTopGold" x="0" y="17.7143" fill="#140924"/><use href="#wmTopGold" x="7" y="3.71429" fill="#140924"/><use href="#wmTopGold" x="7" y="10.7143" fill="#140924"/><use href="#wmTopGold" x="7" y="17.7143" fill="#140924"/><use href="#wmTopGold" x="-7" y="1.57143" fill="#140924"/><use href="#wmTopGold" x="-7" y="8.57143" fill="#140924"/><use href="#wmTopGold" x="-7" y="15.5714" fill="#140924"/><use href="#wmTopGold" x="0" y="1.57143" fill="#140924"/><use href="#wmTopGold" x="0" y="15.5714" fill="#140924"/><use href="#wmTopGold" x="7" y="1.57143" fill="#140924"/><use href="#wmTopGold" x="7" y="8.57143" fill="#140924"/><use href="#wmTopGold" x="7" y="15.5714" fill="#140924"/><use href="#wmTopGold" x="-7" y="-0.571429" fill="#140924"/><use href="#wmTopGold" x="-7" y="6.42857" fill="#140924"/><use href="#wmTopGold" x="-7" y="13.4286" fill="#140924"/><use href="#wmTopGold" x="0" y="-0.571429" fill="#140924"/><use href="#wmTopGold" x="0" y="13.4286" fill="#140924"/><use href="#wmTopGold" x="7" y="-0.571429" fill="#140924"/><use href="#wmTopGold" x="7" y="6.42857" fill="#140924"/><use href="#wmTopGold" x="7" y="13.4286" fill="#140924"/><use href="#wmTopGold" x="-7" y="-2.71429" fill="#140924"/><use href="#wmTopGold" x="-7" y="4.28571" fill="#140924"/><use href="#wmTopGold" x="-7" y="11.2857" fill="#140924"/><use href="#wmTopGold" x="0" y="-2.71429" fill="#140924"/><use href="#wmTopGold" x="0" y="11.2857" fill="#140924"/><use href="#wmTopGold" x="7" y="-2.71429" fill="#140924"/><use href="#wmTopGold" x="7" y="4.28571" fill="#140924"/><use href="#wmTopGold" x="7" y="11.2857" fill="#140924"/><use href="#wmTopGold" x="-7" y="-4.85714" fill="#140924"/><use href="#wmTopGold" x="-7" y="2.14286" fill="#140924"/><use href="#wmTopGold" x="-7" y="9.14286" fill="#140924"/><use href="#wmTopGold" x="0" y="-4.85714" fill="#140924"/><use href="#wmTopGold" x="0" y="9.14286" fill="#140924"/><use href="#wmTopGold" x="7" y="-4.85714" fill="#140924"/><use href="#wmTopGold" x="7" y="2.14286" fill="#140924"/><use href="#wmTopGold" x="7" y="9.14286" fill="#140924"/><use href="#wmTopGold" x="-7" y="-7" fill="#140924"/><use href="#wmTopGold" x="-7" y="0" fill="#140924"/><use href="#wmTopGold" x="-7" y="7" fill="#140924"/><use href="#wmTopGold" x="0" y="-7" fill="#140924"/><use href="#wmTopGold" x="0" y="7" fill="#140924"/><use href="#wmTopGold" x="7" y="-7" fill="#140924"/><use href="#wmTopGold" x="7" y="0" fill="#140924"/><use href="#wmTopGold" x="7" y="7" fill="#140924"/><use href="#wmTopGold" y="15" fill="#6d3b03"/><use href="#wmTopGold" y="12.8571" fill="#6d3b03"/><use href="#wmTopGold" y="10.7143" fill="#6d3b03"/><use href="#wmTopGold" y="8.57143" fill="#6d3b03"/><use href="#wmTopGold" y="6.42857" fill="#6d3b03"/><use href="#wmTopGold" y="4.28571" fill="#6d3b03"/><use href="#wmTopGold" y="2.14286" fill="#6d3b03"/><use href="#wmTopGold" fill="url(#wmGold)"/></g><g transform="translate(219.4 118.24) scale(0.66)"><use href="#wmBottomMain" x="-9.24" y="5.76" fill="#dcc7f7"/><use href="#wmBottomMain" x="-9.24" y="15" fill="#dcc7f7"/><use href="#wmBottomMain" x="-9.24" y="24.24" fill="#dcc7f7"/><use href="#wmBottomMain" x="0" y="5.76" fill="#dcc7f7"/><use href="#wmBottomMain" x="0" y="24.24" fill="#dcc7f7"/><use href="#wmBottomMain" x="9.24" y="5.76" fill="#dcc7f7"/><use href="#wmBottomMain" x="9.24" y="15" fill="#dcc7f7"/><use href="#wmBottomMain" x="9.24" y="24.24" fill="#dcc7f7"/><use href="#wmBottomMain" x="-9.24" y="3.61714" fill="#dcc7f7"/><use href="#wmBottomMain" x="-9.24" y="12.8571" fill="#dcc7f7"/><use href="#wmBottomMain" x="-9.24" y="22.0971" fill="#dcc7f7"/><use href="#wmBottomMain" x="0" y="3.61714" fill="#dcc7f7"/><use href="#wmBottomMain" x="0" y="22.0971" fill="#dcc7f7"/><use href="#wmBottomMain" x="9.24" y="3.61714" fill="#dcc7f7"/><use href="#wmBottomMain" x="9.24" y="12.8571" fill="#dcc7f7"/><use href="#wmBottomMain" x="9.24" y="22.0971" fill="#dcc7f7"/><use href="#wmBottomMain" x="-9.24" y="1.47429" fill="#dcc7f7"/><use href="#wmBottomMain" x="-9.24" y="10.7143" fill="#dcc7f7"/><use href="#wmBottomMain" x="-9.24" y="19.9543" fill="#dcc7f7"/><use href="#wmBottomMain" x="0" y="1.47429" fill="#dcc7f7"/><use href="#wmBottomMain" x="0" y="19.9543" fill="#dcc7f7"/><use href="#wmBottomMain" x="9.24" y="1.47429" fill="#dcc7f7"/><use href="#wmBottomMain" x="9.24" y="10.7143" fill="#dcc7f7"/><use href="#wmBottomMain" x="9.24" y="19.9543" fill="#dcc7f7"/><use href="#wmBottomMain" x="-9.24" y="-0.668571" fill="#dcc7f7"/><use href="#wmBottomMain" x="-9.24" y="8.57143" fill="#dcc7f7"/><use href="#wmBottomMain" x="-9.24" y="17.8114" fill="#dcc7f7"/><use href="#wmBottomMain" x="0" y="-0.668571" fill="#dcc7f7"/><use href="#wmBottomMain" x="0" y="17.8114" fill="#dcc7f7"/><use href="#wmBottomMain" x="9.24" y="-0.668571" fill="#dcc7f7"/><use href="#wmBottomMain" x="9.24" y="8.57143" fill="#dcc7f7"/><use href="#wmBottomMain" x="9.24" y="17.8114" fill="#dcc7f7"/><use href="#wmBottomMain" x="-9.24" y="-2.81143" fill="#dcc7f7"/><use href="#wmBottomMain" x="-9.24" y="6.42857" fill="#dcc7f7"/><use href="#wmBottomMain" x="-9.24" y="15.6686" fill="#dcc7f7"/><use href="#wmBottomMain" x="0" y="-2.81143" fill="#dcc7f7"/><use href="#wmBottomMain" x="0" y="15.6686" fill="#dcc7f7"/><use href="#wmBottomMain" x="9.24" y="-2.81143" fill="#dcc7f7"/><use href="#wmBottomMain" x="9.24" y="6.42857" fill="#dcc7f7"/><use href="#wmBottomMain" x="9.24" y="15.6686" fill="#dcc7f7"/><use href="#wmBottomMain" x="-9.24" y="-4.95429" fill="#dcc7f7"/><use href="#wmBottomMain" x="-9.24" y="4.28571" fill="#dcc7f7"/><use href="#wmBottomMain" x="-9.24" y="13.5257" fill="#dcc7f7"/><use href="#wmBottomMain" x="0" y="-4.95429" fill="#dcc7f7"/><use href="#wmBottomMain" x="0" y="13.5257" fill="#dcc7f7"/><use href="#wmBottomMain" x="9.24" y="-4.95429" fill="#dcc7f7"/><use href="#wmBottomMain" x="9.24" y="4.28571" fill="#dcc7f7"/><use href="#wmBottomMain" x="9.24" y="13.5257" fill="#dcc7f7"/><use href="#wmBottomMain" x="-9.24" y="-7.09714" fill="#dcc7f7"/><use href="#wmBottomMain" x="-9.24" y="2.14286" fill="#dcc7f7"/><use href="#wmBottomMain" x="-9.24" y="11.3829" fill="#dcc7f7"/><use href="#wmBottomMain" x="0" y="-7.09714" fill="#dcc7f7"/><use href="#wmBottomMain" x="0" y="11.3829" fill="#dcc7f7"/><use href="#wmBottomMain" x="9.24" y="-7.09714" fill="#dcc7f7"/><use href="#wmBottomMain" x="9.24" y="2.14286" fill="#dcc7f7"/><use href="#wmBottomMain" x="9.24" y="11.3829" fill="#dcc7f7"/><use href="#wmBottomMain" x="-9.24" y="-9.24" fill="#dcc7f7"/><use href="#wmBottomMain" x="-9.24" y="0" fill="#dcc7f7"/><use href="#wmBottomMain" x="-9.24" y="9.24" fill="#dcc7f7"/><use href="#wmBottomMain" x="0" y="-9.24" fill="#dcc7f7"/><use href="#wmBottomMain" x="0" y="9.24" fill="#dcc7f7"/><use href="#wmBottomMain" x="9.24" y="-9.24" fill="#dcc7f7"/><use href="#wmBottomMain" x="9.24" y="0" fill="#dcc7f7"/><use href="#wmBottomMain" x="9.24" y="9.24" fill="#dcc7f7"/><use href="#wmBottomMain" x="-7" y="8" fill="#140924"/><use href="#wmBottomMain" x="-7" y="15" fill="#140924"/><use href="#wmBottomMain" x="-7" y="22" fill="#140924"/><use href="#wmBottomMain" x="0" y="8" fill="#140924"/><use href="#wmBottomMain" x="0" y="22" fill="#140924"/><use href="#wmBottomMain" x="7" y="8" fill="#140924"/><use href="#wmBottomMain" x="7" y="15" fill="#140924"/><use href="#wmBottomMain" x="7" y="22" fill="#140924"/><use href="#wmBottomMain" x="-7" y="5.85714" fill="#140924"/><use href="#wmBottomMain" x="-7" y="12.8571" fill="#140924"/><use href="#wmBottomMain" x="-7" y="19.8571" fill="#140924"/><use href="#wmBottomMain" x="0" y="5.85714" fill="#140924"/><use href="#wmBottomMain" x="0" y="19.8571" fill="#140924"/><use href="#wmBottomMain" x="7" y="5.85714" fill="#140924"/><use href="#wmBottomMain" x="7" y="12.8571" fill="#140924"/><use href="#wmBottomMain" x="7" y="19.8571" fill="#140924"/><use href="#wmBottomMain" x="-7" y="3.71429" fill="#140924"/><use href="#wmBottomMain" x="-7" y="10.7143" fill="#140924"/><use href="#wmBottomMain" x="-7" y="17.7143" fill="#140924"/><use href="#wmBottomMain" x="0" y="3.71429" fill="#140924"/><use href="#wmBottomMain" x="0" y="17.7143" fill="#140924"/><use href="#wmBottomMain" x="7" y="3.71429" fill="#140924"/><use href="#wmBottomMain" x="7" y="10.7143" fill="#140924"/><use href="#wmBottomMain" x="7" y="17.7143" fill="#140924"/><use href="#wmBottomMain" x="-7" y="1.57143" fill="#140924"/><use href="#wmBottomMain" x="-7" y="8.57143" fill="#140924"/><use href="#wmBottomMain" x="-7" y="15.5714" fill="#140924"/><use href="#wmBottomMain" x="0" y="1.57143" fill="#140924"/><use href="#wmBottomMain" x="0" y="15.5714" fill="#140924"/><use href="#wmBottomMain" x="7" y="1.57143" fill="#140924"/><use href="#wmBottomMain" x="7" y="8.57143" fill="#140924"/><use href="#wmBottomMain" x="7" y="15.5714" fill="#140924"/><use href="#wmBottomMain" x="-7" y="-0.571429" fill="#140924"/><use href="#wmBottomMain" x="-7" y="6.42857" fill="#140924"/><use href="#wmBottomMain" x="-7" y="13.4286" fill="#140924"/><use href="#wmBottomMain" x="0" y="-0.571429" fill="#140924"/><use href="#wmBottomMain" x="0" y="13.4286" fill="#140924"/><use href="#wmBottomMain" x="7" y="-0.571429" fill="#140924"/><use href="#wmBottomMain" x="7" y="6.42857" fill="#140924"/><use href="#wmBottomMain" x="7" y="13.4286" fill="#140924"/><use href="#wmBottomMain" x="-7" y="-2.71429" fill="#140924"/><use href="#wmBottomMain" x="-7" y="4.28571" fill="#140924"/><use href="#wmBottomMain" x="-7" y="11.2857" fill="#140924"/><use href="#wmBottomMain" x="0" y="-2.71429" fill="#140924"/><use href="#wmBottomMain" x="0" y="11.2857" fill="#140924"/><use href="#wmBottomMain" x="7" y="-2.71429" fill="#140924"/><use href="#wmBottomMain" x="7" y="4.28571" fill="#140924"/><use href="#wmBottomMain" x="7" y="11.2857" fill="#140924"/><use href="#wmBottomMain" x="-7" y="-4.85714" fill="#140924"/><use href="#wmBottomMain" x="-7" y="2.14286" fill="#140924"/><use href="#wmBottomMain" x="-7" y="9.14286" fill="#140924"/><use href="#wmBottomMain" x="0" y="-4.85714" fill="#140924"/><use href="#wmBottomMain" x="0" y="9.14286" fill="#140924"/><use href="#wmBottomMain" x="7" y="-4.85714" fill="#140924"/><use href="#wmBottomMain" x="7" y="2.14286" fill="#140924"/><use href="#wmBottomMain" x="7" y="9.14286" fill="#140924"/><use href="#wmBottomMain" x="-7" y="-7" fill="#140924"/><use href="#wmBottomMain" x="-7" y="0" fill="#140924"/><use href="#wmBottomMain" x="-7" y="7" fill="#140924"/><use href="#wmBottomMain" x="0" y="-7" fill="#140924"/><use href="#wmBottomMain" x="0" y="7" fill="#140924"/><use href="#wmBottomMain" x="7" y="-7" fill="#140924"/><use href="#wmBottomMain" x="7" y="0" fill="#140924"/><use href="#wmBottomMain" x="7" y="7" fill="#140924"/><use href="#wmBottomMain" y="15" fill="#554878"/><use href="#wmBottomMain" y="12.8571" fill="#554878"/><use href="#wmBottomMain" y="10.7143" fill="#554878"/><use href="#wmBottomMain" y="8.57143" fill="#554878"/><use href="#wmBottomMain" y="6.42857" fill="#554878"/><use href="#wmBottomMain" y="4.28571" fill="#554878"/><use href="#wmBottomMain" y="2.14286" fill="#554878"/><use href="#wmBottomMain" fill="url(#wmBottom)"/></g></svg>